<svg xmlns="http://www.w3.org/2000/svg" version="1.1" width="64" height="64" viewBox="0 0 300 300" style="background-color:#dae362;">
  <path transform="matrix(6.123233995736766e-17,1,-1,6.123233995736766e-17,150,150)" d="M15.032,77.889A17.60472192278088,17.60472192278088,89.62589927223088,0,1,3,56L6.313,44.737A24,24,-152.01828425567416,0,0,6.798,33.142L0,0L65.898,64.655A14.236150898952108,14.236150898952108,28.43890280031862,0,1,52,88.5ZM-15.032,-77.889A17.604721922780882,17.604721922780882,89.6258992722309,0,1,-3,-56L-6.313,-44.737A24,24,-152.01828425567416,0,0,-6.798,-33.142L0,0L-65.898,-64.655A14.236150898952104,14.236150898952104,28.438902800318612,0,1,-52,-88.5Z"/>
</svg>