<svg xmlns="http://www.w3.org/2000/svg" version="1.1" width="64" height="64" viewBox="0 0 300 300" style="background-color:#dae362;">
  <path transform="matrix(6.123233995736766e-17,1,-1,6.123233995736766e-17,150,150)" 
        d="M15.032,77.889A17.6,17.6,89.6,0,1,3,56L6.313,44.737A24,24,-152,0,0,6.798,33.142L0,0L65.898,64.655A14.236,14.236,28.4,0,1,52,88.5Z 
           M-15.032,-77.889A17.6,17.6,89.6,0,1,-3,-56L-6.313,-44.737A24,24,-152,0,0,-6.798,-33.142L0,0L-65.898,-64.655A14.236,14.236,28.4,0,1,-52,-88.5Z"
        stroke="black" stroke-width="5" fill="none" stroke-linecap="round" stroke-linejoin="round"/>
</svg>
