<?xml version="1.0" standalone="no"?>
<!DOCTYPE svg PUBLIC "-//W3C//DTD SVG 20010904//EN"
 "http://www.w3.org/TR/2001/REC-SVG-20010904/DTD/svg10.dtd">
<svg version="1.0" xmlns="http://www.w3.org/2000/svg"
 width="315.000000pt" height="333.000000pt" viewBox="0 0 315.000000 333.000000"
 preserveAspectRatio="xMidYMid meet">

<rect width="100%" height="100%" fill="black"/>

<g transform="translate(0.000000,333.000000) scale(0.100000,-0.100000)"
fill="#dae362" stroke="none">
<path d="M0 1665 l0 -1665 1575 0 1575 0 0 1665 0 1665 -1575 0 -1575 0 0
-1665z m1521 1164 c15 -30 6 -136 -42 -472 -44 -312 -46 -343 -23 -376 21 -29
89 -60 132 -61 79 0 152 57 152 120 0 20 -16 154 -35 296 -20 142 -39 311 -42
374 -5 100 -4 117 11 129 20 17 27 10 50 -49 21 -56 51 -94 70 -87 8 3 21 28
31 56 9 28 21 51 25 51 12 0 26 -55 56 -210 60 -310 94 -513 94 -561 0 -98
-99 -244 -226 -335 -131 -94 -135 -115 -105 -506 38 -497 61 -820 61 -880 0
-54 -2 -58 -31 -74 -24 -12 -53 -15 -120 -12 -79 3 -91 6 -114 28 l-26 26 30
359 c17 198 37 470 46 605 21 334 13 369 -97 443 -126 83 -238 246 -238 346 0
49 102 624 127 714 9 32 20 56 26 54 5 -1 18 -26 29 -55 28 -76 48 -71 93 23
19 41 40 75 45 75 5 0 14 -10 21 -21z"/>
</g>
</svg>
